<svg xmlns="http://www.w3.org/2000/svg" width="24" height="24" viewBox="0 0 24 24" fill="#000000">
    <path
        d="M18.53 8.12c5.77 0 5.08 6.08 5.05 6.28v.01h-7.51c0 2.7 2.55 2.52 2.55 2.52 2.33 0 2.33-1.46 2.32-1.55h2.56c0 4.13-4.97 3.85-4.97 3.85-5.95 0-5.57-5.54-5.57-5.54v-.02c0-.37.2-5.55 5.57-5.55zM.23 4.42h7.55c2.3 0 4.1 1.27 4.1 3.87s-2.2 2.76-2.2 2.76c2.91 0 2.7 3.6 2.7 3.6 0 4.06-3.88 4.27-4.51 4.28H.24V4.43h7.54H.24zm7.55 8.06H3.56v3.87h4.01c.6-.01 1.74-.19 1.74-1.88 0-1.87-1.32-1.99-1.5-2h-.02zm10.8-2.24c-2.16 0-2.52 2.09-2.54 2.23h4.76v-.02c0-.25-.11-2.21-2.21-2.21zM7.79 7H3.56v3.24h3.96c.68 0 1.29-.22 1.29-1.73 0-1.38-.86-1.5-1-1.5h-.02zM21.4 5.28v1.79h-5.98V5.28h5.98z" />
</svg>