<svg xmlns="http://www.w3.org/2000/svg" width="24" height="24" viewBox="0 0 24 24" fill="#000000">
    <path
        d="M23.76 9.58A11.99 11.99 0 0 0 0 12a12.08 12.08 0 0 0 3.51 8.49 12.12 12.12 0 0 0 6.07 3.27A11.99 11.99 0 0 0 24 12a12 12 0 0 0-.24-2.42zm-1.51 2.32c-.15-.03-3.62-.78-7.14-.34a38.64 38.64 0 0 0-.9-2.01c4.04-1.66 5.69-4.03 5.7-4.06a10.2 10.2 0 0 1 2.34 6.4zm-3.48-7.6c-.03.05-1.49 2.27-5.35 3.72a52.06 52.06 0 0 0-3.83-5.98 10.23 10.23 0 0 1 9.18 2.27zM7.63 2.74a61.6 61.6 0 0 1 3.8 5.9A37.91 37.91 0 0 1 1.97 9.9c.67-3.18 2.8-5.8 5.66-7.16zM1.75 12l.01-.32c.18 0 5.25.11 10.52-1.46.3.57.58 1.15.83 1.74l-.4.12c-5.53 1.79-8.34 6.76-8.34 6.76A10.21 10.21 0 0 1 1.76 12zM12 22.25a10.2 10.2 0 0 1-6.53-2.35l.23.18s1.97-4.29 8.04-6.4l.07-.02a42.64 42.64 0 0 1 2.2 7.78 10.2 10.2 0 0 1-4.01.8zm5.73-1.75c-.1-.62-.65-3.63-2-7.32 3.31-.53 6.18.38 6.39.45a10.26 10.26 0 0 1-4.4 6.87z" />
</svg>