<svg xmlns="http://www.w3.org/2000/svg" width="24" height="24" viewBox="0 0 24 24" fill="#000000">
    <path
        d="M23.31 14.55A11.37 11.37 0 0 0 10.17 1 6.67 6.67 0 0 0 0 6.55c0 1.2.33 2.33.91 3.3a11.37 11.37 0 0 0 13.31 13.37c.94.5 2 .78 3.14.78A6.6 6.6 0 0 0 24 17.45c0-1.04-.25-2.03-.69-2.9zM18 17.52a5.2 5.2 0 0 1-2.33 1.74c-1 .41-2.2.62-3.57.62a8.84 8.84 0 0 1-4.1-.85c-.77-.4-1.4-.96-1.89-1.65a3.56 3.56 0 0 1-.73-2.04c0-.4.16-.77.48-1.06.31-.3.71-.44 1.2-.44.39 0 .73.12 1 .34.27.23.49.55.67.97.2.46.43.85.66 1.15.23.3.55.54.96.73a4 4 0 0 0 1.66.3c.95 0 1.73-.2 2.3-.6.58-.38.86-.84.86-1.4 0-.45-.15-.8-.45-1.07a3.17 3.17 0 0 0-1.22-.67c-.52-.16-1.22-.33-2.1-.51a17 17 0 0 1-3-.89 4.95 4.95 0 0 1-1.96-1.42 3.5 3.5 0 0 1-.75-2.26c0-.85.27-1.62.78-2.28A4.83 4.83 0 0 1 8.7 4.7a9.84 9.84 0 0 1 3.36-.52c1.03 0 1.92.11 2.67.34.76.23 1.4.55 1.9.93.5.39.87.8 1.1 1.24.24.43.36.86.36 1.28 0 .4-.15.77-.46 1.1-.32.31-.71.48-1.18.48-.42 0-.76-.1-.99-.3a3.7 3.7 0 0 1-.68-.9 3.75 3.75 0 0 0-1.03-1.26c-.38-.29-1.02-.43-1.9-.43-.83 0-1.5.16-2 .48-.47.31-.7.66-.7 1.08 0 .26.07.47.23.66.16.2.4.37.68.51a5 5 0 0 0 .92.35c.32.1.85.22 1.58.39.93.2 1.78.41 2.54.65.76.24 1.42.54 1.95.88.55.35.99.8 1.3 1.34.3.55.46 1.22.46 2 0 .92-.27 1.77-.8 2.51z" />
</svg>